<mxfile host="app.diagrams.net" modified="2021-06-28T05:44:27.536Z" agent="5.0 (Windows NT 10.0; WOW64) AppleWebKit/537.36 (KHTML, like Gecko) Chrome/91.0.4472.114 Safari/537.36" etag="9FVA_y5mEIBadVHL4Uke" version="14.7.0" type="github">
  <diagram name="Page-1" id="74e2e168-ea6b-b213-b513-2b3c1d86103e">
    <mxGraphModel dx="925" dy="536" grid="1" gridSize="10" guides="1" tooltips="1" connect="1" arrows="1" fold="1" page="1" pageScale="1" pageWidth="1100" pageHeight="850" background="none" math="0" shadow="0">
      <root>
        <mxCell id="0" />
        <mxCell id="1" parent="0" />
        <mxCell id="E5fLCeuCiGyZJZs4yHPO-1" value="" style="ellipse;whiteSpace=wrap;html=1;fontSize=12;fillColor=#dae8fc;strokeColor=#6c8ebf;" vertex="1" parent="1">
          <mxGeometry x="180" y="330" width="20" height="20" as="geometry" />
        </mxCell>
        <mxCell id="E5fLCeuCiGyZJZs4yHPO-2" value="" style="endArrow=none;html=1;fontSize=12;" edge="1" parent="1">
          <mxGeometry width="50" height="50" relative="1" as="geometry">
            <mxPoint x="170" y="358" as="sourcePoint" />
            <mxPoint x="200" y="358" as="targetPoint" />
            <Array as="points">
              <mxPoint x="200" y="358" />
              <mxPoint x="210" y="358" />
            </Array>
          </mxGeometry>
        </mxCell>
        <mxCell id="E5fLCeuCiGyZJZs4yHPO-3" value="" style="endArrow=none;html=1;fontSize=12;" edge="1" parent="1">
          <mxGeometry width="50" height="50" relative="1" as="geometry">
            <mxPoint x="190" y="400" as="sourcePoint" />
            <mxPoint x="190" y="350" as="targetPoint" />
          </mxGeometry>
        </mxCell>
        <mxCell id="E5fLCeuCiGyZJZs4yHPO-4" value="" style="endArrow=none;html=1;fontSize=12;" edge="1" parent="1">
          <mxGeometry width="50" height="50" relative="1" as="geometry">
            <mxPoint x="180" y="420" as="sourcePoint" />
            <mxPoint x="190" y="400" as="targetPoint" />
          </mxGeometry>
        </mxCell>
        <mxCell id="E5fLCeuCiGyZJZs4yHPO-5" value="" style="endArrow=none;html=1;fontSize=12;" edge="1" parent="1">
          <mxGeometry width="50" height="50" relative="1" as="geometry">
            <mxPoint x="191" y="400" as="sourcePoint" />
            <mxPoint x="201" y="420" as="targetPoint" />
          </mxGeometry>
        </mxCell>
        <mxCell id="E5fLCeuCiGyZJZs4yHPO-6" value="&lt;font style=&quot;font-size: 16px&quot;&gt;Apollo配置中心&lt;/font&gt;" style="rounded=0;whiteSpace=wrap;html=1;fontSize=12;fillColor=#dae8fc;strokeColor=#6c8ebf;" vertex="1" parent="1">
          <mxGeometry x="114" y="550" width="152" height="90" as="geometry" />
        </mxCell>
        <mxCell id="E5fLCeuCiGyZJZs4yHPO-9" value="" style="endArrow=classic;html=1;fillColor=#dae8fc;strokeColor=#6c8ebf;fontSize=12;entryX=0.5;entryY=0;entryDx=0;entryDy=0;fontStyle=1;strokeWidth=3;" edge="1" parent="1" target="E5fLCeuCiGyZJZs4yHPO-6">
          <mxGeometry width="50" height="50" relative="1" as="geometry">
            <mxPoint x="190" y="420" as="sourcePoint" />
            <mxPoint x="189.71" y="510" as="targetPoint" />
          </mxGeometry>
        </mxCell>
        <mxCell id="E5fLCeuCiGyZJZs4yHPO-10" value="&lt;font style=&quot;font-size: 14px&quot;&gt;修改/发布配置&lt;/font&gt;" style="text;html=1;strokeColor=none;fillColor=none;align=center;verticalAlign=middle;whiteSpace=wrap;rounded=0;fontSize=12;fontFamily=Times New Roman;" vertex="1" parent="1">
          <mxGeometry x="80" y="470" width="120" height="20" as="geometry" />
        </mxCell>
        <mxCell id="E5fLCeuCiGyZJZs4yHPO-11" value="" style="rounded=0;whiteSpace=wrap;html=1;fontFamily=Times New Roman;fontSize=12;fillColor=#f5f5f5;strokeColor=#666666;fontColor=#333333;" vertex="1" parent="1">
          <mxGeometry x="460" y="350" width="420" height="310" as="geometry" />
        </mxCell>
        <mxCell id="E5fLCeuCiGyZJZs4yHPO-12" value="&lt;font style=&quot;font-size: 16px&quot;&gt;本地应用容器&lt;/font&gt;" style="text;html=1;strokeColor=none;fillColor=none;align=center;verticalAlign=middle;whiteSpace=wrap;rounded=0;fontFamily=Times New Roman;fontSize=12;" vertex="1" parent="1">
          <mxGeometry x="710" y="375" width="130" height="30" as="geometry" />
        </mxCell>
        <mxCell id="E5fLCeuCiGyZJZs4yHPO-13" value="&lt;font style=&quot;font-size: 16px&quot;&gt;应用程序&lt;/font&gt;" style="rounded=0;whiteSpace=wrap;html=1;fontFamily=Times New Roman;fontSize=12;fillColor=#dae8fc;strokeColor=#6c8ebf;" vertex="1" parent="1">
          <mxGeometry x="510" y="375" width="160" height="95" as="geometry" />
        </mxCell>
        <mxCell id="E5fLCeuCiGyZJZs4yHPO-14" value="" style="rounded=0;whiteSpace=wrap;html=1;fontFamily=Times New Roman;fontSize=12;fillColor=#dae8fc;strokeColor=#6c8ebf;" vertex="1" parent="1">
          <mxGeometry x="510" y="546" width="160" height="90" as="geometry" />
        </mxCell>
        <mxCell id="E5fLCeuCiGyZJZs4yHPO-15" value="&lt;font style=&quot;font-size: 16px&quot;&gt;本地文件缓存&lt;/font&gt;" style="strokeWidth=2;html=1;shape=mxgraph.flowchart.document2;whiteSpace=wrap;size=0.25;fontFamily=Times New Roman;fontSize=12;fillColor=#dae8fc;strokeColor=#6c8ebf;" vertex="1" parent="1">
          <mxGeometry x="760" y="576" width="110" height="60" as="geometry" />
        </mxCell>
        <mxCell id="E5fLCeuCiGyZJZs4yHPO-16" value="&lt;font style=&quot;font-size: 14px&quot;&gt;内存缓存&lt;/font&gt;" style="strokeWidth=2;html=1;shape=mxgraph.flowchart.database;whiteSpace=wrap;fontFamily=Times New Roman;fontSize=12;fillColor=#dae8fc;strokeColor=#6c8ebf;" vertex="1" parent="1">
          <mxGeometry x="550" y="583" width="80" height="50" as="geometry" />
        </mxCell>
        <mxCell id="E5fLCeuCiGyZJZs4yHPO-17" value="&lt;font style=&quot;font-size: 16px&quot;&gt;Apollo客户端&lt;/font&gt;" style="text;html=1;strokeColor=none;fillColor=none;align=center;verticalAlign=middle;whiteSpace=wrap;rounded=0;fontFamily=Times New Roman;fontSize=12;" vertex="1" parent="1">
          <mxGeometry x="537" y="554" width="105" height="20" as="geometry" />
        </mxCell>
        <mxCell id="E5fLCeuCiGyZJZs4yHPO-18" value="" style="endArrow=classic;startArrow=classic;html=1;fontFamily=Times New Roman;fontSize=12;strokeWidth=3;entryX=0;entryY=0.5;entryDx=0;entryDy=0;entryPerimeter=0;exitX=1.002;exitY=0.673;exitDx=0;exitDy=0;exitPerimeter=0;fillColor=#dae8fc;strokeColor=#6c8ebf;" edge="1" parent="1" source="E5fLCeuCiGyZJZs4yHPO-14" target="E5fLCeuCiGyZJZs4yHPO-15">
          <mxGeometry width="50" height="50" relative="1" as="geometry">
            <mxPoint x="670" y="613" as="sourcePoint" />
            <mxPoint x="750" y="613" as="targetPoint" />
          </mxGeometry>
        </mxCell>
        <mxCell id="E5fLCeuCiGyZJZs4yHPO-19" value="&lt;font style=&quot;font-size: 16px&quot;&gt;sync&lt;/font&gt;" style="text;html=1;strokeColor=none;fillColor=none;align=center;verticalAlign=middle;whiteSpace=wrap;rounded=0;fontFamily=Times New Roman;fontSize=12;" vertex="1" parent="1">
          <mxGeometry x="700" y="578" width="40" height="20" as="geometry" />
        </mxCell>
        <mxCell id="E5fLCeuCiGyZJZs4yHPO-20" value="" style="endArrow=classic;html=1;fillColor=#dae8fc;strokeColor=#6c8ebf;fontSize=12;fontStyle=1;strokeWidth=3;entryX=0;entryY=0.25;entryDx=0;entryDy=0;exitX=1.006;exitY=0.208;exitDx=0;exitDy=0;endSize=0;startSize=0;jumpSize=0;exitPerimeter=0;" edge="1" parent="1" source="E5fLCeuCiGyZJZs4yHPO-6" target="E5fLCeuCiGyZJZs4yHPO-14">
          <mxGeometry width="50" height="50" relative="1" as="geometry">
            <mxPoint x="269" y="567.5" as="sourcePoint" />
            <mxPoint x="490" y="568" as="targetPoint" />
          </mxGeometry>
        </mxCell>
        <mxCell id="E5fLCeuCiGyZJZs4yHPO-21" value="" style="endArrow=classic;html=1;fontFamily=Times New Roman;fontSize=12;strokeWidth=3;fillColor=#dae8fc;strokeColor=#6c8ebf;" edge="1" parent="1">
          <mxGeometry width="50" height="50" relative="1" as="geometry">
            <mxPoint x="507" y="618" as="sourcePoint" />
            <mxPoint x="266" y="618" as="targetPoint" />
            <Array as="points">
              <mxPoint x="266" y="618" />
            </Array>
          </mxGeometry>
        </mxCell>
        <mxCell id="E5fLCeuCiGyZJZs4yHPO-22" value="&lt;font style=&quot;font-size: 14px&quot;&gt;配置更新推送&lt;/font&gt;" style="text;html=1;strokeColor=none;fillColor=none;align=center;verticalAlign=middle;whiteSpace=wrap;rounded=0;fontSize=12;fontFamily=Times New Roman;" vertex="1" parent="1">
          <mxGeometry x="320" y="546" width="120" height="20" as="geometry" />
        </mxCell>
        <mxCell id="E5fLCeuCiGyZJZs4yHPO-23" value="&lt;font style=&quot;font-size: 14px&quot;&gt;定时拉取配置&lt;/font&gt;" style="text;html=1;strokeColor=none;fillColor=none;align=center;verticalAlign=middle;whiteSpace=wrap;rounded=0;fontSize=12;fontFamily=Times New Roman;" vertex="1" parent="1">
          <mxGeometry x="319" y="598" width="120" height="20" as="geometry" />
        </mxCell>
      </root>
    </mxGraphModel>
  </diagram>
</mxfile>
